<?xml version="1.0" encoding="UTF-8"?>
<svg version="1.1" xmlns="http://www.w3.org/2000/svg" width="50" height="50">
<path d="M0 0 C0.33 0.99 0.66 1.98 1 3 C1.94875 3.12375 2.8975 3.2475 3.875 3.375 C7 4 7 4 9 6 C9.598125 5.505 10.19625 5.01 10.8125 4.5 C13 3 13 3 16 3 C16 8.94 16 14.88 16 21 C15.34 21 14.68 21 14 21 C13.7525 21.78375 13.505 22.5675 13.25 23.375 C11.84610901 26.32317108 10.99324263 26.9024777 8 28 C8 28.66 8 29.32 8 30 C6.02 30.99 4.04 31.98 2 33 C5.04386724 33.08226668 7.07175348 32.97608217 10 32 C10 32.66 10 33.32 10 34 C11.98 33.34 13.96 32.68 16 32 C16 32.99 16 33.98 16 35 C17.98 35 19.96 35 22 35 C21.67 36.65 21.34 38.3 21 40 C19.02 40 17.04 40 15 40 C15 40.66 15 41.32 15 42 C3.12 42 -8.76 42 -21 42 C-21 41.67 -21 41.34 -21 41 C-22.98 40.34 -24.96 39.68 -27 39 C-27 37.02 -27 35.04 -27 33 C-24.42786866 31.38050989 -23.32330841 30.95591249 -20.25 31.375 C-19.13625 31.684375 -19.13625 31.684375 -18 32 C-18 32.66 -18 33.32 -18 34 C-17.34 34 -16.68 34 -16 34 C-16 33.34 -16 32.68 -16 32 C-14.68 32 -13.36 32 -12 32 C-12 32.66 -12 33.32 -12 34 C-9.03 33.505 -9.03 33.505 -6 33 C-7.5778125 32.4121875 -7.5778125 32.4121875 -9.1875 31.8125 C-14.10565852 29.71182905 -17.05758029 26.41362957 -20 22 C-20.41910981 19.30027966 -20.37179553 16.70552746 -20 14 C-18.75 12.4375 -18.75 12.4375 -17 11 C-16.443125 9.865625 -15.88625 8.73125 -15.3125 7.5625 C-12.25044667 2.0036955 -6.30315193 -0.78789399 0 0 Z " fill="#866843" transform="translate(28,3)"/>
<path d="M0 0 C0.66 0.66 1.32 1.32 2 2 C1.66555164 5.34448359 0.21127671 7.52337009 -2 10 C-2.66 10 -3.32 10 -4 10 C-4 10.66 -4 11.32 -4 12 C-5.98 12.99 -7.96 13.98 -10 15 C-6.95613276 15.08226668 -4.92824652 14.97608217 -2 14 C-2 14.66 -2 15.32 -2 16 C-0.02 15.34 1.96 14.68 4 14 C4 14.99 4 15.98 4 17 C5.98 17 7.96 17 10 17 C9.505 19.475 9.505 19.475 9 22 C7.02 22 5.04 22 3 22 C3 22.66 3 23.32 3 24 C-8.88 24 -20.76 24 -33 24 C-33 23.67 -33 23.34 -33 23 C-34.98 22.34 -36.96 21.68 -39 21 C-39 19.02 -39 17.04 -39 15 C-36.42786866 13.38050989 -35.32330841 12.95591249 -32.25 13.375 C-31.5075 13.58125 -30.765 13.7875 -30 14 C-30 14.66 -30 15.32 -30 16 C-29.34 16 -28.68 16 -28 16 C-28 15.34 -28 14.68 -28 14 C-26.68 14 -25.36 14 -24 14 C-24 14.66 -24 15.32 -24 16 C-21.03 16 -18.06 16 -15 16 C-15.9977758 13.00667261 -16.7522025 12.05233685 -19 10 C-15.33885707 8.82843426 -12.61131072 7.98824402 -8.75 8.0625 C-6.03110573 8.25602186 -6.03110573 8.25602186 -4.3125 6.8125 C-2.72406522 4.61894721 -1.3364486 2.35469515 0 0 Z " fill="#9B7339" transform="translate(40,21)"/>
<path d="M0 0 C0.33 0.66 0.66 1.32 1 2 C2.65 2 4.3 2 6 2 C6 5.61029169 5.03907418 8.55806676 4 12 C4.99 12 5.98 12 7 12 C7 13.65 7 15.3 7 17 C8.32 16.67 9.64 16.34 11 16 C11 15.34 11 14.68 11 14 C11.66 14 12.32 14 13 14 C13 13.34 13 12.68 13 12 C13.66 12 14.32 12 15 12 C13.67993386 16.18139869 12.23241386 18.00070434 8.5625 20.375 C7.78003906 20.89835937 6.99757813 21.42171875 6.19140625 21.9609375 C4 23 4 23 1 22 C1.33 21.34 1.66 20.68 2 20 C2.66 20 3.32 20 4 20 C4 19.01 4 18.02 4 17 C3.34 17 2.68 17 2 17 C2 17.66 2 18.32 2 19 C1.34 19 0.68 19 0 19 C0 20.32 0 21.64 0 23 C-3.65316671 21.75023244 -4.78065836 21.32901247 -7 18 C-7.2774583 12.54332011 -6.77142328 7.39996297 -6 2 C-4.02 1.34 -2.04 0.68 0 0 Z " fill="#82755D" transform="translate(22,4)"/>
<path d="M0 0 C0.66 0 1.32 0 2 0 C2 0.66 2 1.32 2 2 C3.98 1.34 5.96 0.68 8 0 C8 0.99 8 1.98 8 3 C9.98 3 11.96 3 14 3 C13.67 4.65 13.34 6.3 13 8 C11.02 8 9.04 8 7 8 C7 8.66 7 9.32 7 10 C1.72 10 -3.56 10 -9 10 C-9 3 -9 3 -8 2 C-4.5 1.5 -4.5 1.5 -1 1 C-0.67 0.67 -0.34 0.34 0 0 Z " fill="#2A2B60" transform="translate(36,35)"/>
<path d="M0 0 C0.66 0 1.32 0 2 0 C2 3.96 2 7.92 2 12 C0.68 11.34 -0.64 10.68 -2 10 C-2.61875 10.94875 -3.2375 11.8975 -3.875 12.875 C-6 16 -6 16 -8 18 C-10.00792058 18 -12.01636601 17.99588753 -14.0234375 17.9375 C-16.42334374 18.01338636 -18.01031222 18.67354148 -20 20 C-19.01 20.66 -18.02 21.32 -17 22 C-17.33 22.99 -17.66 23.98 -18 25 C-23.73091655 22.7650674 -27.9590812 20.69267989 -32 16 C-31.34 15.67 -30.68 15.34 -30 15 C-29.01 15.33 -28.02 15.66 -27 16 C-19.74308755 17.03882182 -13.9277492 15.25782315 -8 11 C-4.83101767 7.66422912 -2.06243713 4.12487426 0 0 Z " fill="#204692" transform="translate(42,12)"/>
<path d="M0 0 C0.928125 0.20625 1.85625 0.4125 2.8125 0.625 C2.8125 1.285 2.8125 1.945 2.8125 2.625 C3.4725 2.625 4.1325 2.625 4.8125 2.625 C4.8125 1.965 4.8125 1.305 4.8125 0.625 C6.1325 0.955 7.4525 1.285 8.8125 1.625 C8.4825 2.945 8.1525 4.265 7.8125 5.625 C8.8025 5.625 9.7925 5.625 10.8125 5.625 C10.8125 6.615 10.8125 7.605 10.8125 8.625 C13.1225 8.625 15.4325 8.625 17.8125 8.625 C17.8125 9.285 17.8125 9.945 17.8125 10.625 C11.8725 10.625 5.9325 10.625 -0.1875 10.625 C-0.1875 10.295 -0.1875 9.965 -0.1875 9.625 C-2.1675 8.965 -4.1475 8.305 -6.1875 7.625 C-6.375 4.75 -6.375 4.75 -6.1875 1.625 C-3.1875 -0.375 -3.1875 -0.375 0 0 Z " fill="#84714A" transform="translate(7.1875,34.375)"/>
<path d="M0 0 C0.66 0 1.32 0 2 0 C1.835 0.99 1.67 1.98 1.5 3 C0.77896395 8.06785338 0.36284175 13.08852526 2 18 C3.93330603 19.09166275 3.93330603 19.09166275 6 20 C6.66 20.66 7.32 21.32 8 22 C2.34136895 22.29268781 -1.02222358 22.03522952 -6 19 C-7 18 -7 18 -7.25 14.125 C-7.19504505 10.24380631 -7.19504505 10.24380631 -5.75 8.4375 C-5.1725 7.963125 -4.595 7.48875 -4 7 C-2.55989541 4.71854398 -1.29603334 2.36861266 0 0 Z " fill="#A77E44" transform="translate(15,7)"/>
<path d="M0 0 C0.66 0.66 1.32 1.32 2 2 C1.01 4.64 0.02 7.28 -1 10 C-0.01 10 0.98 10 2 10 C2 11.65 2 13.3 2 15 C3.32 14.67 4.64 14.34 6 14 C6 13.34 6 12.68 6 12 C6.66 12 7.32 12 8 12 C8 11.34 8 10.68 8 10 C8.66 10 9.32 10 10 10 C8.67993386 14.18139869 7.23241386 16.00070434 3.5625 18.375 C2.78003906 18.89835937 1.99757813 19.42171875 1.19140625 19.9609375 C-1 21 -1 21 -4 20 C-3.67 19.34 -3.34 18.68 -3 18 C-2.34 18 -1.68 18 -1 18 C-0.67 17.01 -0.34 16.02 0 15 C0.33 14.67 0.66 14.34 1 14 C0.01 14 -0.98 14 -2 14 C-3.9249647 12.17806158 -5.37535531 10.10764717 -7 8 C-6 6 -5 4 -4 2 C-2.68 2 -1.36 2 0 2 C0 1.34 0 0.68 0 0 Z " fill="#0A2167" transform="translate(27,6)"/>
<path d="M0 0 C0.66 0 1.32 0 2 0 C2 3.96 2 7.92 2 12 C0.68 11.34 -0.64 10.68 -2 10 C-2.5775 10.94875 -3.155 11.8975 -3.75 12.875 C-5.82816551 15.76134098 -6.75468075 16.84095741 -10 18 C-8.8686953 12.09207545 -6.37804981 8.53149052 -2.55859375 3.91796875 C-0.94917712 2.07919199 -0.94917712 2.07919199 0 0 Z " fill="#193A90" transform="translate(42,12)"/>
<path d="M0 0 C3.96 0.33 7.92 0.66 12 1 C12 3.64 12 6.28 12 9 C11.34 9 10.68 9 10 9 C10 8.34 10 7.68 10 7 C7.69 7 5.38 7 3 7 C3 6.01 3 5.02 3 4 C2.01 4 1.02 4 0 4 C0 2.68 0 1.36 0 0 Z " fill="#CC9B47" transform="translate(15,36)"/>
<path d="M0 0 C0.89203125 0.00902344 1.7840625 0.01804688 2.703125 0.02734375 C3.37859375 0.03894531 4.0540625 0.05054688 4.75 0.0625 C4.42 1.7125 4.09 3.3625 3.75 5.0625 C-0.21 5.0625 -4.17 5.0625 -8.25 5.0625 C-8.58 3.7425 -8.91 2.4225 -9.25 1.0625 C-6.09493858 0.12630187 -3.28413498 -0.0432123 0 0 Z " fill="#060525" transform="translate(45.25,37.9375)"/>
<path d="M0 0 C1.65 0 3.3 0 5 0 C5.33 0.99 5.66 1.98 6 3 C8.97 3.495 8.97 3.495 12 4 C12.33 5.65 12.66 7.3 13 9 C10.69 8.67 8.38 8.34 6 8 C6 8.99 6 9.98 6 11 C5.01 10.67 4.02 10.34 3 10 C3.66 8.02 4.32 6.04 5 4 C3.35 3.67 1.7 3.34 0 3 C0 2.01 0 1.02 0 0 Z " fill="#A8A197" transform="translate(23,3)"/>
<path d="M0 0 C3.5087884 3.84295873 6 9.74687196 6 15 C2.34683329 13.75023244 1.21934164 13.32901247 -1 10 C-1.39958487 6.57982443 -1.5635348 3.12706959 0 0 Z " fill="#0E1A4B" transform="translate(16,12)"/>
<path d="M0 0 C0.66 0 1.32 0 2 0 C0.67993386 4.18139869 -0.76758614 6.00070434 -4.4375 8.375 C-5.21996094 8.89835937 -6.00242187 9.42171875 -6.80859375 9.9609375 C-9 11 -9 11 -12 10 C-11.67 9.34 -11.34 8.68 -11 8 C-10.34 8 -9.68 8 -9 8 C-8.67 7.01 -8.34 6.02 -8 5 C-7.34870203 3.65909241 -6.68486725 2.32407669 -6 1 C-6 2.32 -6 3.64 -6 5 C-4.68 4.67 -3.36 4.34 -2 4 C-2 3.34 -2 2.68 -2 2 C-1.34 2 -0.68 2 0 2 C0 1.34 0 0.68 0 0 Z " fill="#141124" transform="translate(35,16)"/>
<path d="M0 0 C3.36016893 1.12005631 4.69064913 2.37211797 7 5 C7 5.66 7 6.32 7 7 C7.99 7 8.98 7 10 7 C9.67 7.99 9.34 8.98 9 10 C9 9.34 9 8.68 9 8 C8.01 8 7.02 8 6 8 C6 8.66 6 9.32 6 10 C5.34 10 4.68 10 4 10 C3.67 10.66 3.34 11.32 3 12 C2.49440092 10.56445975 1.9957251 9.1264798 1.5 7.6875 C1.2215625 6.88699219 0.943125 6.08648437 0.65625 5.26171875 C0 3 0 3 0 0 Z " fill="#544835" transform="translate(18,13)"/>
<path d="M0 0 C0.66 0 1.32 0 2 0 C1.835 0.969375 1.67 1.93875 1.5 2.9375 C0.86603727 7.29487763 0.9103328 11.60630704 1 16 C-0.32 16 -1.64 16 -3 16 C-3 14.02 -3 12.04 -3 10 C-2.34 10 -1.68 10 -1 10 C-1 9.01 -1 8.02 -1 7 C-1.66 7 -2.32 7 -3 7 C-2.38722388 4.03824877 -1.74627478 2.61941217 0 0 Z " fill="#E2BC6D" transform="translate(15,7)"/>
<path d="M0 0 C0 1.98 0 3.96 0 6 C-0.66 6 -1.32 6 -2 6 C-2.66 7.65 -3.32 9.3 -4 11 C-4.66 11 -5.32 11 -6 11 C-6 9.35 -6 7.7 -6 6 C-5.34 6 -4.68 6 -4 6 C-4 5.34 -4 4.68 -4 4 C-4.66 4 -5.32 4 -6 4 C-5.67 3.01 -5.34 2.02 -5 1 C-3 0 -3 0 0 0 Z " fill="#EABC56" transform="translate(44,6)"/>
<path d="M0 0 C0 0.66 0 1.32 0 2 C1.32 2 2.64 2 4 2 C3.67 2.99 3.34 3.98 3 5 C-5.57142857 4 -5.57142857 4 -9 3 C-8.67 2.01 -8.34 1.02 -8 0 C-5.13822943 -1.43088528 -3.06624227 -0.59991697 0 0 Z " fill="#D39836" transform="translate(10,35)"/>
<path d="M0 0 C0.66 0.66 1.32 1.32 2 2 C1.66555164 5.34448359 0.21127671 7.52337009 -2 10 C-2.66 10 -3.32 10 -4 10 C-4 10.66 -4 11.32 -4 12 C-4.66 12 -5.32 12 -6 12 C-5.54300722 6.97307937 -3.00758252 3.85103739 0 0 Z " fill="#D3A767" transform="translate(40,21)"/>
<path d="M0 0 C0 0.99 0 1.98 0 3 C-0.66 3.66 -1.32 4.32 -2 5 C-1.67 5.66 -1.34 6.32 -1 7 C-2.73397418 10.65047197 -4.19333016 12.55609075 -8 14 C-6.7542451 7.89580099 -4.30284347 4.45168397 0 0 Z " fill="#2D56A7" transform="translate(40,16)"/>
<path d="M0 0 C1.65 0 3.3 0 5 0 C5 1.32 5 2.64 5 4 C4.34 4 3.68 4 3 4 C3 4.66 3 5.32 3 6 C1.68 6.33 0.36 6.66 -1 7 C-0.67 4.69 -0.34 2.38 0 0 Z " fill="#755F34" transform="translate(30,14)"/>
<path d="M0 0 C1.98 0 3.96 0 6 0 C5.67 1.65 5.34 3.3 5 5 C3.35 5 1.7 5 0 5 C0 3.35 0 1.7 0 0 Z " fill="#C88A1B" transform="translate(44,38)"/>
<path d="M0 0 C1.65 0 3.3 0 5 0 C5 0.66 5 1.32 5 2 C5.99 2.66 6.98 3.32 8 4 C7.67 4.99 7.34 5.98 7 7 C4.36 6.01 1.72 5.02 -1 4 C-0.34 3.67 0.32 3.34 1 3 C0.67 2.01 0.34 1.02 0 0 Z " fill="#151E53" transform="translate(17,30)"/>
<path d="M0 0 C0.33 0 0.66 0 1 0 C1.1953125 2.01822917 1.390625 4.03645833 1.5859375 6.0546875 C1.86374749 8.22668245 1.86374749 8.22668245 4 10 C3.34 10 2.68 10 2 10 C2.33 10.99 2.66 11.98 3 13 C2.34 13 1.68 13 1 13 C-1.70238949 8.94641576 -1.22937614 6.81689896 -1 2 C-0.67 1.34 -0.34 0.68 0 0 Z " fill="#21539D" transform="translate(16,12)"/>
<path d="M0 0 C0.33 0.99 0.66 1.98 1 3 C-0.95216435 4.95216435 -2.53199953 5.84826645 -5 7 C-5.33 5.35 -5.66 3.7 -6 2 C-4.02 1.34 -2.04 0.68 0 0 Z " fill="#8C5617" transform="translate(22,4)"/>
<path d="M0 0 C0.66 0.33 1.32 0.66 2 1 C1.34 2.65 0.68 4.3 0 6 C-0.99 6 -1.98 6 -3 6 C-3 5.34 -3 4.68 -3 4 C-3.66 3.67 -4.32 3.34 -5 3 C-2.625 1.4375 -2.625 1.4375 0 0 Z " fill="#0A1F64" transform="translate(32,24)"/>
<path d="M0 0 C0.99 0.66 1.98 1.32 3 2 C2.67 2.66 2.34 3.32 2 4 C1.01 4 0.02 4 -1 4 C-1 4.66 -1 5.32 -1 6 C-2.32 6 -3.64 6 -5 6 C-5 5.34 -5 4.68 -5 4 C-4.01 4 -3.02 4 -2 4 C-2 3.01 -2 2.02 -2 1 C-1.34 0.67 -0.68 0.34 0 0 Z " fill="#646670" transform="translate(31,10)"/>
<path d="M0 0 C1.875 1.25 1.875 1.25 3.875 3.25 C-2.1796875 3.4453125 -2.1796875 3.4453125 -4.125 3.25 C-4.785 2.59 -5.445 1.93 -6.125 1.25 C-2.69883966 -0.95253165 -2.69883966 -0.95253165 0 0 Z " fill="#C4984C" transform="translate(19.125,25.75)"/>
<path d="M0 0 C0.66 0 1.32 0 2 0 C0.75023244 3.65316671 0.32901247 4.78065836 -3 7 C-3.99 6.34 -4.98 5.68 -6 5 C-4.68 4.67 -3.36 4.34 -2 4 C-2 3.34 -2 2.68 -2 2 C-1.34 2 -0.68 2 0 2 C0 1.34 0 0.68 0 0 Z " fill="#3A2920" transform="translate(35,16)"/>
<path d="M0 0 C0.66 0.66 1.32 1.32 2 2 C1.34 3.65 0.68 5.3 0 7 C-0.99 7 -1.98 7 -3 7 C-3 5.35 -3 3.7 -3 2 C-2.01 2 -1.02 2 0 2 C0 1.34 0 0.68 0 0 Z " fill="#0C5DC3" transform="translate(27,6)"/>
<path d="M0 0 C1.65 0 3.3 0 5 0 C5.33 0.99 5.66 1.98 6 3 C4.02 3 2.04 3 0 3 C0 2.01 0 1.02 0 0 Z " fill="#ECC47B" transform="translate(23,3)"/>
</svg>
